<svg width="222" height="259" viewBox="0 0 222 259" fill="none" xmlns="http://www.w3.org/2000/svg">
<path d="M108.698 4.76962C111.654 9.51455 110.206 15.759 105.465 18.717L29.9175 65.853L127.803 118.972C132.324 121.425 134.228 126.827 132.425 131.504C131.797 133.775 130.379 135.838 128.262 137.241L23.5037 206.686C19.4438 209.377 14.1538 208.753 10.8197 205.462C7.1912 203.924 4.6456 200.327 4.6456 196.135L4.64559 137.848C4.64559 132.257 9.17457 127.724 14.7614 127.724C20.3481 127.724 24.8771 132.257 24.8771 137.848L24.8771 181.488L103.959 129.065L5.29602 75.5252C0.384721 72.86 -1.43794 66.7148 1.225 61.7994C2.30114 59.813 3.94513 58.3314 5.8464 57.4469C6.45333 56.784 7.15928 56.1916 7.95893 55.6927L94.7623 1.5341C99.5033 -1.42391 105.743 0.0246854 108.698 4.76962Z" fill="#0BD7F3"/>
<path d="M100.608 191.768C95.9505 194.856 94.6756 201.138 97.7606 205.799C98.5792 207.036 99.6225 208.035 100.801 208.777C100.997 208.917 101.2 209.052 101.41 209.18L180.28 257.509C185.045 260.428 191.273 258.929 194.19 254.161C197.107 249.392 195.609 243.16 190.844 240.24L124.994 199.89L216.539 139.205C219.304 137.372 220.877 134.412 221.053 131.334C223.208 126.721 221.593 121.125 217.147 118.414L131.602 66.238C126.831 63.3282 120.607 64.8401 117.7 69.6147C114.792 74.3894 116.303 80.6189 121.074 83.5286L195.454 128.895L100.608 191.768Z" fill="#0BD7F3"/>
<path d="M193.171 200.231C189.069 196.434 182.669 196.684 178.876 200.789C175.082 204.894 175.332 211.3 179.434 215.096L180.287 215.886C184.389 219.682 190.789 219.432 194.582 215.327C198.375 211.222 198.125 204.817 194.024 201.02L193.171 200.231Z" fill="#0BD7F3"/>
</svg>
